<svg width="180" height="43" viewBox="0 0 180 43" fill="none" xmlns="http://www.w3.org/2000/svg">
<path d="M74.6855 12.699C74.6855 12.604 74.7455 12.521 74.8375 12.496C75.5255 12.309 76.3975 12.13 77.4545 11.96C78.5905 11.777 79.8485 11.686 81.2285 11.686C82.5265 11.686 83.6126 11.864 84.4846 12.219C85.3566 12.574 86.0525 13.071 86.5695 13.71C87.0865 14.349 87.4525 15.12 87.6656 16.023C87.8786 16.926 87.9846 17.915 87.9846 18.99V27.727C87.9846 27.843 87.8906 27.937 87.7746 27.937H84.5126C84.3966 27.937 84.3026 27.843 84.3026 27.727V19.568C84.3026 18.716 84.2465 17.991 84.1355 17.392C84.0235 16.794 83.8405 16.307 83.5875 15.931C83.3335 15.556 82.9886 15.282 82.5526 15.11C82.1156 14.937 81.5835 14.851 80.9545 14.851C80.4875 14.851 80.0005 14.881 79.4935 14.942C78.9865 15.003 78.6115 15.054 78.3675 15.094V27.727C78.3675 27.843 78.2735 27.937 78.1575 27.937H74.8955C74.7795 27.937 74.6855 27.843 74.6855 27.727V12.699Z" fill="#050037"/>
<path d="M96.018 25.289C96.992 25.289 97.702 25.173 98.148 24.939C98.594 24.706 98.818 24.305 98.818 23.737C98.818 23.21 98.579 22.774 98.102 22.428C97.626 22.084 96.839 21.708 95.744 21.302C95.074 21.059 94.461 20.8 93.903 20.526C93.344 20.252 92.863 19.933 92.457 19.568C92.051 19.202 91.731 18.761 91.498 18.244C91.265 17.727 91.149 17.093 91.149 16.342C91.149 14.881 91.686 13.73 92.762 12.888C93.837 12.046 95.298 11.625 97.144 11.625C98.077 11.625 98.97 11.711 99.822 11.883C100.565 12.034 101.146 12.18 101.565 12.323C101.666 12.357 101.722 12.463 101.698 12.567L101.125 15.123C101.096 15.251 100.961 15.319 100.839 15.271C100.474 15.125 100.033 14.99 99.518 14.866C98.888 14.714 98.158 14.637 97.326 14.637C96.576 14.637 95.967 14.764 95.501 15.018C95.033 15.272 94.8 15.662 94.8 16.19C94.8 16.454 94.846 16.687 94.938 16.89C95.029 17.093 95.186 17.28 95.409 17.453C95.632 17.625 95.926 17.798 96.292 17.97C96.657 18.143 97.103 18.32 97.631 18.503C98.503 18.827 99.244 19.147 99.853 19.461C100.461 19.776 100.963 20.131 101.359 20.526C101.754 20.922 102.044 21.374 102.226 21.881C102.409 22.388 102.5 22.996 102.5 23.707C102.5 25.228 101.937 26.38 100.811 27.161C99.685 27.941 98.077 28.332 95.988 28.332C94.588 28.332 93.461 28.215 92.609 27.982C91.884 27.784 91.342 27.618 90.985 27.486C90.886 27.449 90.829 27.348 90.85 27.245L91.402 24.589C91.429 24.462 91.56 24.39 91.682 24.436C92.18 24.627 92.758 24.81 93.416 24.985C94.177 25.188 95.044 25.289 96.018 25.289Z" fill="#050037"/>
<path d="M132.963 18.412C132.963 17.905 132.892 17.423 132.75 16.966C132.608 16.51 132.4 16.114 132.126 15.779C131.852 15.444 131.517 15.181 131.122 14.988C130.726 14.795 130.254 14.699 129.706 14.699C129.138 14.699 128.641 14.805 128.216 15.018C127.789 15.231 127.429 15.511 127.135 15.855C126.84 16.2 126.612 16.596 126.45 17.042C126.288 17.489 126.176 17.945 126.116 18.412H132.963ZM122.281 20.055C122.281 18.655 122.489 17.428 122.905 16.373C123.32 15.318 123.873 14.44 124.563 13.74C125.253 13.04 126.044 12.513 126.937 12.158C127.83 11.803 128.743 11.625 129.676 11.625C131.867 11.625 133.576 12.305 134.804 13.664C136.031 15.024 136.645 17.053 136.645 19.751C136.645 19.954 136.64 20.182 136.63 20.436C136.623 20.612 136.613 20.777 136.601 20.929C136.593 21.037 136.501 21.12 136.391 21.12H126.085C126.186 22.398 126.637 23.387 127.439 24.087C128.241 24.787 129.402 25.137 130.924 25.137C131.816 25.137 132.633 25.056 133.374 24.894C133.986 24.76 134.491 24.619 134.888 24.47C135.011 24.425 135.144 24.506 135.165 24.635L135.585 27.232C135.6 27.325 135.554 27.418 135.467 27.456C135.283 27.538 135.051 27.622 134.773 27.709C134.418 27.821 134.013 27.922 133.556 28.013C133.1 28.105 132.608 28.181 132.08 28.242C131.552 28.302 131.015 28.333 130.468 28.333C129.067 28.333 127.85 28.125 126.815 27.709C125.781 27.293 124.929 26.715 124.259 25.974C123.589 25.234 123.092 24.361 122.768 23.357C122.443 22.353 122.281 21.252 122.281 20.055Z" fill="#050037"/>
<path d="M139.203 19.994C139.203 18.818 139.385 17.717 139.751 16.692C140.116 15.668 140.638 14.78 141.318 14.029C141.997 13.279 142.824 12.69 143.798 12.264C144.772 11.838 145.868 11.625 147.085 11.625C148.521 11.625 149.882 11.875 151.17 12.376C151.27 12.415 151.325 12.525 151.298 12.629L150.615 15.23C150.583 15.352 150.453 15.416 150.336 15.37C149.966 15.227 149.556 15.104 149.109 15.003C148.571 14.881 147.998 14.82 147.39 14.82C145.949 14.82 144.853 15.272 144.103 16.175C143.352 17.078 142.977 18.351 142.977 19.994C142.977 21.577 143.331 22.83 144.042 23.753C144.752 24.676 145.949 25.137 147.633 25.137C148.262 25.137 148.88 25.076 149.489 24.955C149.994 24.854 150.443 24.732 150.836 24.589C150.961 24.544 151.092 24.619 151.114 24.749L151.562 27.382C151.578 27.476 151.532 27.571 151.445 27.609C151.043 27.785 150.477 27.945 149.748 28.089C148.926 28.251 148.079 28.333 147.207 28.333C145.847 28.333 144.666 28.124 143.661 27.709C142.657 27.293 141.825 26.715 141.166 25.974C140.506 25.234 140.014 24.351 139.69 23.326C139.365 22.302 139.203 21.191 139.203 19.994Z" fill="#050037"/>
<path d="M175.784 18.412C175.784 17.905 175.713 17.423 175.571 16.966C175.429 16.51 175.221 16.114 174.947 15.779C174.673 15.444 174.338 15.181 173.943 14.988C173.547 14.795 173.075 14.699 172.527 14.699C171.959 14.699 171.462 14.805 171.037 15.018C170.61 15.231 170.25 15.511 169.956 15.855C169.662 16.2 169.433 16.596 169.271 17.042C169.109 17.489 168.997 17.945 168.937 18.412H175.784ZM165.102 20.055C165.102 18.655 165.31 17.428 165.726 16.373C166.141 15.318 166.694 14.44 167.384 13.74C168.074 13.04 168.865 12.513 169.758 12.158C170.651 11.803 171.564 11.625 172.497 11.625C174.688 11.625 176.397 12.305 177.625 13.664C178.852 15.024 179.466 17.053 179.466 19.751C179.466 19.954 179.461 20.182 179.451 20.436C179.444 20.612 179.434 20.777 179.422 20.929C179.414 21.037 179.322 21.12 179.212 21.12H168.906C169.007 22.398 169.459 23.387 170.26 24.087C171.062 24.787 172.223 25.137 173.745 25.137C174.637 25.137 175.454 25.056 176.195 24.894C176.935 24.732 177.518 24.559 177.945 24.377L178.432 27.389C178.229 27.491 177.95 27.598 177.594 27.709C177.239 27.821 176.834 27.922 176.377 28.013C175.921 28.105 175.429 28.181 174.901 28.242C174.373 28.302 173.836 28.333 173.289 28.333C171.888 28.333 170.671 28.125 169.636 27.709C168.602 27.293 167.75 26.715 167.08 25.974C166.41 25.234 165.913 24.361 165.589 23.357C165.264 22.353 165.102 21.252 165.102 20.055Z" fill="#050037"/>
<path d="M115.114 23.738C114.495 24.65 113.517 25.107 112.177 25.107C111.569 25.107 110.995 25.011 110.458 24.818C109.92 24.625 109.489 24.418 109.165 24.194V15.095C109.53 14.993 109.9 14.927 110.275 14.897C110.651 14.866 111.011 14.851 111.356 14.851C112.999 14.851 114.191 15.308 114.932 16.22C115.672 17.134 116.043 18.412 116.043 20.055C116.043 21.597 115.733 22.824 115.114 23.738ZM119.253 16.54C118.877 15.516 118.34 14.643 117.64 13.923C116.94 13.203 116.093 12.65 115.099 12.264C114.105 11.879 112.979 11.686 111.721 11.686C110.503 11.686 109.347 11.777 108.251 11.96C107.23 12.13 106.358 12.31 105.636 12.497C105.544 12.521 105.482 12.605 105.482 12.701V33.567L105.499 34.463C105.502 34.624 105.676 34.722 105.815 34.642L109.059 32.768C109.124 32.731 109.165 32.661 109.165 32.586V27.389C109.57 27.613 110.088 27.816 110.717 27.998C111.345 28.181 112.036 28.272 112.786 28.272C113.902 28.272 114.901 28.069 115.784 27.663C116.666 27.258 117.402 26.689 117.99 25.959C118.578 25.229 119.03 24.357 119.345 23.342C119.659 22.328 119.816 21.212 119.816 19.994C119.816 18.716 119.628 17.565 119.253 16.54Z" fill="#050037"/>
<path d="M163.234 24.769C163.208 24.645 163.08 24.57 162.96 24.613C162.688 24.711 162.352 24.815 161.951 24.924C161.434 25.066 160.841 25.137 160.171 25.137C159.197 25.137 158.507 24.863 158.102 24.316C157.696 23.768 157.493 22.855 157.493 21.577V15.094H162.943C163.059 15.094 163.153 15 163.153 14.884V12.231C163.153 12.115 163.059 12.021 162.943 12.021H157.493V7.58702C157.493 7.42502 157.318 7.32401 157.177 7.40501L153.916 9.288C153.851 9.325 153.811 9.39501 153.811 9.47001V21.607C153.811 22.662 153.902 23.6 154.084 24.422C154.267 25.244 154.582 25.944 155.028 26.522C155.474 27.1 156.078 27.542 156.838 27.846C157.599 28.15 158.548 28.302 159.684 28.302C160.617 28.302 161.429 28.206 162.119 28.013C162.726 27.844 163.231 27.678 163.634 27.516C163.728 27.478 163.777 27.378 163.757 27.278L163.234 24.769Z" fill="#050037"/>
<path d="M70.2735 7.46597C70.2735 7.41597 70.2335 7.37598 70.1835 7.37598C70.1675 7.37598 70.1535 7.37996 70.1405 7.38696L66.5445 9.46297C66.4795 9.49997 66.4395 9.56997 66.4395 9.64497V27.726C66.4395 27.843 66.5335 27.937 66.6495 27.937H70.0635C70.1795 27.937 70.2745 27.843 70.2745 27.726L70.2735 7.46597Z" fill="#050037"/>
<mask id="mask0_13766_27519" style="mask-type:luminance" maskUnits="userSpaceOnUse" x="0" y="0" width="59" height="43">
<path d="M7.989 19.311C7.979 19.435 8.115 19.52 8.223 19.458L12.033 17.258C12.124 17.206 12.187 17.12 12.21 17.019C14.015 9.451 20.818 3.821 28.938 3.821C36.449 3.821 42.835 8.635 45.18 15.345C45.182 15.35 45.18 15.355 45.176 15.358L31.24 23.404C31.063 23.505 30.844 23.378 30.844 23.175V11.285C30.844 11.069 30.61 10.934 30.422 11.042L0.195999 28.493C0.0739991 28.563 0 28.692 0 28.833V32.547C0 32.751 0.219999 32.878 0.396999 32.776L9.025 27.795C9.031 27.791 9.037 27.794 9.04 27.8C11.86 36.085 19.7 42.046 28.938 42.046C40.266 42.046 49.497 33.084 49.939 21.864C49.947 21.665 49.728 21.534 49.555 21.634L46.105 23.626C45.991 23.692 45.915 23.805 45.892 23.934C44.509 32.047 37.446 38.225 28.938 38.225C21.111 38.225 14.509 32.996 12.425 25.841C12.423 25.836 12.426 25.831 12.43 25.829L26.803 17.531C26.905 17.472 27.034 17.546 27.034 17.663V29.792C27.034 29.987 27.245 30.11 27.415 30.011L57.958 12.377C58.036 12.332 58.085 12.248 58.085 12.157V8.345C58.085 8.15 57.872 8.027 57.703 8.125L48.544 13.414C48.538 13.416 48.531 13.414 48.529 13.408C45.479 5.563 37.862 0 28.938 0C17.904 0 8.861 8.501 7.989 19.311Z" fill="white"/>
</mask>
<g mask="url(#mask0_13766_27519)">
<path d="M58.085 0H0V42.046H58.085V0Z" fill="url(#paint0_linear_13766_27519)"/>
</g>
<defs>
<linearGradient id="paint0_linear_13766_27519" x1="0.0272635" y1="21.03" x2="58.1121" y2="21.03" gradientUnits="userSpaceOnUse">
<stop stop-color="#0F0AB9"/>
<stop offset="0.0031" stop-color="#0F0AB9"/>
<stop offset="0.1105" stop-color="#0E1FC3"/>
<stop offset="0.4026" stop-color="#0A52DD"/>
<stop offset="0.6575" stop-color="#0777EF"/>
<stop offset="0.8626" stop-color="#068EFB"/>
<stop offset="0.9923" stop-color="#0596FF"/>
<stop offset="1" stop-color="#0596FF"/>
</linearGradient>
</defs>
</svg>
