<svg width="42" height="42" viewBox="0 0 42 42" fill="none" xmlns="http://www.w3.org/2000/svg">
<path d="M27.6323 34.8287L27.6323 20.5015C27.6323 16.9567 24.7092 14.083 21.1034 14.083L6.52883 14.083C2.92305 14.083 -0.000101215 16.9567 -0.00010137 20.5015L-0.000101996 34.8295C-0.000102151 38.3743 2.92305 41.248 6.52883 41.248L21.1034 41.248C24.7092 41.2472 27.6323 38.3735 27.6323 34.8287Z" fill="#39BFAD"/>
<path d="M27.6323 7.04124C27.6323 3.15274 24.4253 -1.40182e-07 20.4691 -3.13113e-07L7.1623 -8.94773e-07C3.20688 -1.06767e-06 -0.000101227 3.15273 -0.000101397 7.04124C-0.000101567 10.9297 3.20688 14.0825 7.1623 14.0825L20.4691 14.0825C24.4253 14.0825 27.6323 10.9305 27.6323 7.04124Z" fill="#E26BA7"/>
<path d="M41.9497 20.1229L41.9497 7.04124C41.9497 3.15274 38.7427 -1.40182e-07 34.7873 -3.13079e-07C30.8319 -4.85976e-07 27.6249 3.15273 27.6249 7.04124L27.6249 20.1229C27.6249 24.0115 30.8319 27.1642 34.7873 27.1642C38.7427 27.1642 41.9497 24.0115 41.9497 20.1229Z" fill="#39BFAD"/>
<path d="M41.9402 34.5755C42.1559 30.3994 38.6666 26.9692 34.4187 27.1812C30.7812 27.362 27.8263 30.2677 27.6416 33.8429C27.4267 38.019 30.9159 41.4492 35.1631 41.2372C38.8006 41.0564 41.7563 38.1507 41.9402 34.5755Z" fill="#E26BA7"/>
</svg>
