<?xml version="1.0" encoding="UTF-8"?>
<svg width="142px" height="45px" viewBox="0 0 142 45" version="1.1" xmlns="http://www.w3.org/2000/svg" xmlns:xlink="http://www.w3.org/1999/xlink">
    <title>RECTANGLE all white</title>
    <g id="Mobile" stroke="none" stroke-width="1" fill="none" fill-rule="evenodd">
        <g id="v2.1-copy-7" transform="translate(-649.000000, -44.000000)" fill="#FFFFFF" fill-rule="nonzero">
            <g id="RECTANGLE-all-white" transform="translate(649.000000, 44.000000)">
                <path d="M58.124001,19.0327249 L58.0727534,19.8789725 C58.0727534,19.8789725 55.4566947,19.4687105 53.7126337,19.4687105 C52.0711993,19.4687105 50.2758907,19.9559459 50.2758907,22.0331108 C50.2758907,23.6229745 50.9683575,24.1102099 53.9178212,24.5718533 C57.27766,25.1103385 58.5856893,25.5975739 58.5856893,28.008093 C58.5856893,31.0084789 56.7390674,31.931634 53.7126337,31.931634 C52.2507301,31.931634 49.4807973,31.5213063 49.4807973,31.5213063 L49.583424,30.6750588 C49.583424,30.6750588 52.3533568,31.1110443 53.6613861,31.1110443 C56.0722573,31.1110443 57.6367217,30.5468355 57.6367217,28.0850665 C57.6367217,26.2386904 56.7134107,25.8796783 53.6613861,25.4181007 C50.6606091,24.9564574 49.3269231,24.469222 49.3269231,22.0843607 C49.3269231,19.3660792 51.6352334,18.648055 53.7126337,18.648055 C55.6875389,18.648055 58.124001,19.0327249 58.124001,19.0327249 Z M62.7662124,31.7008453 L61.8685581,31.7008453 L61.8685581,12.9807692 L62.7662124,12.9807692 L62.7662124,19.6481836 C62.7662124,19.6481836 65.0232091,18.648055 67.228893,18.648055 C70.7169491,18.648055 71.435073,20.0585114 71.435073,25.0334308 L71.435073,31.7008453 L70.5374186,31.7008453 L70.5374186,25.0846807 C70.5374186,20.7252199 70.0757301,19.4687105 67.228893,19.4687105 C64.9462397,19.4687105 62.7662124,20.4944311 62.7662124,20.4944311 L62.7662124,31.7008453 Z M79.6679012,31.1110443 C81.46321,31.1110443 84.3357038,30.8802556 84.3357038,30.8802556 L84.3870172,31.7008453 C84.3870172,31.7008453 81.5145234,31.931634 79.6422445,31.931634 C75.8207835,31.9059762 74.8205022,29.4697992 74.8205022,25.2898775 C74.8205022,20.2123925 77.0774996,18.648055 80.0013068,18.648055 C83.1559579,18.648055 84.8742966,20.3662078 84.8742966,24.802642 L84.8742966,25.6488896 L75.7694701,25.6488896 C75.7694701,29.1877606 76.6927812,31.1110443 79.6679012,31.1110443 Z M75.7694701,24.8282999 L83.9253288,24.8282999 C83.9253288,20.9047589 82.6686127,19.4687105 80.0013068,19.4687105 C77.4365612,19.4687105 75.7694701,20.9304167 75.7694701,24.8282999 L75.7694701,24.8282999 Z M92.5428759,31.1110443 C94.3382499,31.1110443 97.2107437,30.8802556 97.2107437,30.8802556 L97.2620571,31.7008453 C97.2620571,31.7008453 94.3894975,31.931634 92.517285,31.931634 C88.6957576,31.9059762 87.6955428,29.4697992 87.6955428,25.2898775 C87.6955428,20.2123925 89.9525394,18.648055 92.8763466,18.648055 C96.0309319,18.648055 97.7493365,20.3662078 97.7493365,24.802642 L97.7493365,25.6488896 L88.64451,25.6488896 C88.64451,29.1877606 89.5677553,31.1110443 92.5428759,31.1110443 Z M88.64451,24.8282999 L96.8003686,24.8282999 C96.8003686,20.9047589 95.5436526,19.4687105 92.8763466,19.4687105 C90.3116011,19.4687105 88.64451,20.9304167 88.64451,24.8282999 L88.64451,24.8282999 Z M101.109175,31.7008453 L101.109175,18.8788439 L102.006829,18.8788439 L102.006829,20.8791011 C102.006829,20.8791011 104.263761,19.1609483 107.085007,18.622463 L107.085007,19.5456182 C104.571575,20.0585114 102.006829,21.7253486 102.006829,21.7253486 L102.006829,31.7008453 L101.109175,31.7008453 Z M109.85494,31.7008453 L109.85494,13.7501091 L111.804122,13.7501091 L118.113425,30.2904547 L124.422662,13.7501091 L126.37191,13.7501091 L126.37191,31.7008453 L125.4486,31.7008453 L125.4486,14.6220143 L125.089538,14.6220143 L118.780235,31.1622942 L117.446549,31.1622942 L111.137312,14.6220143 L110.778251,14.6220143 L110.778251,31.7008453 L109.85494,31.7008453 Z M131.091026,31.7008453 L131.091026,13.7501091 L141.580786,13.7501091 L141.580786,14.6220143 L132.014337,14.6220143 L132.014337,22.0843607 L140.041978,22.0843607 L140.041978,22.9562659 L132.014337,22.9562659 L132.014337,30.8289399 L141.580786,30.8289399 L141.580786,31.7008453 L131.091026,31.7008453 L131.091026,31.7008453 Z" id="sheerme"></path>
                <g id="enso">
                    <path d="M1.05324214,25.7673288 C1.47216418,28.0705601 3.77971004,32.7024848 2.84877219,30.0232157 C1.26617784,25.4637579 0.820507684,23.9341447 0.727413897,19.1396633 C0.634320111,21.536904 0.634320111,23.3230834 1.05324214,25.7673288 Z" id="Path"></path>
                    <path d="M0.661517315,18.9290982 L0.661517315,18.9290982 C0.661517315,18.9790982 0.661517315,18.9790982 0.661517315,19.0290982 C0.661517315,18.9790982 0.661517315,18.9290982 0.661517315,18.9290982 Z" id="Path"></path>
                    <path d="M21.8542042,42.9129639 C22.422345,42.959025 23.0378307,42.959025 23.6533166,42.9129639 C23.3692462,42.9129639 23.0851759,42.9129639 22.8011054,42.9129639 C22.9431406,42.9129639 23.0378307,42.9129639 23.227211,42.9129639 C23.5112814,42.9129639 23.7953518,42.9129639 24.0794222,42.9129639 C24.2688025,42.9129639 24.5055278,42.8669028 24.694908,42.8669028 C24.5055278,42.8669028 24.3634926,42.8669028 24.1741123,42.8669028 C23.4639363,42.8669028 22.8011054,42.9129639 22.1856196,42.9129639 C21.712169,42.8669028 21.2860634,42.8208416 20.8126128,42.7747805 C21.0966831,42.8208416 21.3807536,42.8669028 21.6648239,42.9129639 C21.6174789,42.9129639 21.5227887,42.9129639 21.4754437,42.9129639 C21.5701338,42.9129639 21.6648239,42.9129639 21.759514,42.9129639 C21.8068591,42.9129639 21.8068591,42.9129639 21.8542042,42.9129639 C21.8068591,42.9129639 21.8068591,42.9129639 21.8542042,42.9129639 Z" id="Path"></path>
                    <path d="M41.2067713,33.9766371 C43.1401034,30.8640296 44.1775012,27.091172 43.941729,22.6580644 C43.7059567,18.9795282 43.6588023,22.5637429 43.6116478,24.6859753 C43.6116478,24.5916539 43.6116478,24.4501717 43.6116478,24.3558502 C43.6588023,23.0353501 43.5644934,21.6676893 43.3287212,20.3471891 C43.3758756,20.7716356 43.4701845,21.1960821 43.517339,21.6205285 C43.6116478,22.3279393 43.6116478,23.0353501 43.6116478,23.7427609 C43.517339,21.0074392 42.9986401,18.3664389 42.0555512,16.0555636 C42.244169,16.4328494 42.3856323,16.8101351 42.5270957,17.1874209 C41.9612423,15.5367957 41.2067713,14.0276527 40.3108368,12.7071525 C38.0002692,9.21725924 34.463686,6.67058037 29.7010873,5.4915624 C32.860435,6.71774112 35.6425471,8.27404483 37.9059603,10.3491166 C41.4425435,14.5464206 43.1401034,18.4135996 43.1872579,22.8467073 C43.1401034,22.3279393 43.092949,21.8091714 42.9986401,21.1489213 C42.0555512,14.4992599 43.517339,24.1200467 42.3384779,28.6946364 C42.1498602,29.4020473 41.8669335,30.1094581 41.5368524,30.8168689 C41.6783157,30.5810653 41.819779,30.3924224 42.0083968,30.1566188 L42.0083968,30.1566188 L42.0083968,30.1566188 L42.5742501,29.0719222 C43.092949,28.0815471 43.3758756,26.9025291 43.5644934,25.6291897 C43.1872579,29.3077258 41.819779,32.467494 39.6978291,35.1084943 C40.5466091,33.8823157 41.3010801,32.5146548 41.7726246,31.0526725 L41.7726246,31.0998332 C42.0083968,30.628226 41.5368524,31.2413153 40.8295357,32.3260119 C40.4523002,32.986262 40.0750647,33.5993513 39.6506746,34.16528 C39.6035202,34.2124407 39.5563658,34.3067621 39.4620569,34.3539228 C39.7449836,33.9766371 39.9807557,33.5993513 40.1693735,33.2220656 C39.8392924,33.6936728 39.5092113,34.2124407 39.1319758,34.6840479 C35.8783193,38.1739411 32.341736,40.8149414 28.2392995,41.9467987 C29.5596239,41.6638344 30.8327939,41.2393879 32.0116549,40.72062 C27.2019018,43.1258167 22.1563765,43.2672989 17.62955,41.7581558 C18.7141022,42.0411202 19.8458088,42.229763 20.9775154,42.3712452 C20.3645077,42.2769237 19.7514999,42.1826023 19.0913377,41.9939594 C17.1108511,41.5223522 15.3189823,40.8149414 13.7157312,39.9660485 C13.3856501,39.7774056 13.0084146,39.541602 12.6783335,39.3057984 C10.2734569,37.6080125 8.05719811,35.344298 6.17102042,32.7032976 C5.65232156,31.9487262 5.22793158,31.0998332 4.8035416,30.298101 C2.68159167,25.0161003 2.72874612,18.6022425 4.75638715,12.2355453 C4.94500492,11.8110989 5.18077714,11.3394916 5.41654934,10.9150452 C5.65232156,10.4905987 6.3596382,9.40590214 7.11410931,8.36836631 C7.53849925,8.03824126 7.96288926,7.7081162 8.48158812,7.37799115 C8.19866145,7.37799115 7.96288926,7.37799115 7.7742715,7.42515189 L7.7742715,7.42515189 C10.4620747,6.6234197 10.8393102,6.6234197 9.47183141,6.34045535 C11.5466269,6.15181247 12.7254879,4.73699088 11.6409357,5.86884815 C10.0376847,7.47231263 12.5368702,5.53872312 13.4328046,4.83131232 C13.904349,4.64266944 14.4702023,4.40686584 14.6588201,4.21822297 C14.753129,4.12390153 14.8474379,4.07674081 14.8945923,3.98241937 C15.5547545,4.26538369 15.9319901,3.32216929 15.9791445,2.47327634 C17.0165422,0.303883235 15.9319901,-0.120563242 14.4230479,0.115240356 L14.4230479,0.115240356 L14.4230479,0.115240356 C13.8571946,0.162401076 13.2913412,0.303883235 12.7726424,0.445365394 C12.3482524,0.586847553 11.9238624,0.68116899 11.5937813,0.916972593 C10.179148,1.81302626 4.56776938,6.01033032 6.21817487,5.68020528 C5.699476,6.15181247 5.13362269,6.67058037 4.99215936,6.85922327 C5.03931381,6.81206253 5.08646825,6.76490186 5.13362269,6.76490186 C4.8035416,7.14218758 4.33199717,7.61379479 4.09622495,7.99108052 C1.36126728,12.3770275 3.95476163,10.0661522 5.3693949,8.13256267 C5.46370379,8.085402 5.65232156,8.085402 5.84093933,7.99108052 C5.88809377,7.99108052 5.88809377,7.99108052 5.93524821,7.94391984 C5.88809377,7.99108052 5.84093933,7.99108052 5.79378488,8.03824126 C4.23768828,9.78318787 2.21004725,13.4145633 1.07834063,16.0555636 C1.31411284,14.9237063 1.54988505,13.8390098 1.73850283,12.612831 C-0.996454843,17.4703852 0.0409428917,22.6580644 1.36126728,27.8457435 C0.465332875,24.0257252 0.276715104,22.9410287 0.653950645,19.0266889 C0.701105089,18.3664389 0.795413975,17.7061888 0.889722855,17.1402602 C3.53037164,14.7350634 2.16289281,12.5185096 6.3596382,8.93429493 C3.53037164,13.1787597 2.44581946,17.3760637 2.77590056,21.9506536 C2.63443723,18.7908854 3.24744499,15.5367957 4.70923271,12.2827061 C2.823055,17.8476709 2.54012835,23.8370823 4.28484273,29.0719222 C4.04907051,28.5059936 3.86045274,27.9872257 3.67183497,27.421297 C3.90760719,28.3173507 4.19053384,29.2134044 4.52061494,30.1566188 C4.37915161,29.9208152 4.28484273,29.7321723 4.1433794,29.4963687 L5.22793158,31.8072439 C5.699476,32.7976191 6.21817487,33.7408334 6.83118264,34.5897264 C6.50110153,34.16528 6.17102042,33.7408334 5.79378488,33.316387 C6.92549148,34.9198515 7.7742715,35.9573873 8.7173603,36.9006017 C9.3775225,37.6080125 10.0376847,38.2211018 10.7450014,38.7870305 C11.0750825,39.0699948 11.4051636,39.3057984 11.7823991,39.6359234 C15.8376812,42.1354416 19.8458088,43.5974239 23.9482453,43.5502632 C20.7417432,43.738906 17.5823955,43.1258167 14.328739,41.4280308 C3.62468053,35.7687444 0.512487318,23.9785645 3.76614386,12.8014739 C2.35151058,17.5647066 1.92712059,19.4511354 2.58728279,24.4501717 C3.43606276,31.1469939 2.11573837,23.0353501 1.92712059,21.2432427 C2.21004725,25.8649933 3.29459943,29.7321723 4.94500492,32.8447798 C4.66207827,32.4203333 4.37915161,31.9958868 4.1433794,31.6186011 C2.63443723,28.5059936 1.83281171,24.9689396 1.83281171,21.1017606 C1.87996615,17.4703852 3.86045274,12.6599918 1.78565726,17.4232245 L1.78565726,17.4232245 L1.78565726,17.4232245 L1.78565726,17.4232245 L1.78565726,17.4232245 L1.78565726,17.4232245 C0.653950645,18.7437246 0.748259532,21.9034928 0.984031742,23.5069573 C1.73850283,29.3077258 4.28484273,33.316387 6.21817487,35.6272623 C7.72711701,37.6551732 9.51898583,39.3057984 11.4994724,40.5791379 C9.84906693,39.5887627 8.38727921,38.4569055 6.87833706,36.8062803 C5.98240266,35.8630658 3.05882722,31.4299582 3.24744499,31.9015654 C5.27508602,37.7494947 11.3108547,42.1354416 17.20516,43.5502632 C26.7303574,45.8611384 35.7840103,42.559888 40.6409179,34.9670122 C40.8295357,34.6368871 41.0181535,34.3067621 41.2067713,33.9766371 Z" id="Shape"></path>
                </g>
            </g>
        </g>
    </g>
</svg>
