<?xml version="1.0" encoding="UTF-8"?>
<svg width="176px" height="55px" viewBox="0 0 176 55" version="1.1" xmlns="http://www.w3.org/2000/svg" xmlns:xlink="http://www.w3.org/1999/xlink">
    <title>42F7D584-E90F-494A-A473-CD1A93DC7255</title>
    <defs>
        <linearGradient x1="-0.0736374274%" y1="50.0044018%" x2="957.511772%" y2="50.0044018%" id="linearGradient-1">
            <stop stop-color="#2D388A" offset="0%"></stop>
            <stop stop-color="#00AEEF" offset="100%"></stop>
        </linearGradient>
        <linearGradient x1="50.379894%" y1="49.807344%" x2="50.379894%" y2="49.807344%" id="linearGradient-2">
            <stop stop-color="#2D388A" offset="0%"></stop>
            <stop stop-color="#00AEEF" offset="100%"></stop>
        </linearGradient>
        <linearGradient x1="0.0678163415%" y1="49.763941%" x2="957.654402%" y2="49.763941%" id="linearGradient-3">
            <stop stop-color="#2D388A" offset="0%"></stop>
            <stop stop-color="#00AEEF" offset="100%"></stop>
        </linearGradient>
        <linearGradient x1="-0.00975278282%" y1="50.0082663%" x2="957.576224%" y2="50.0082663%" id="linearGradient-4">
            <stop stop-color="#2D388A" offset="0%"></stop>
            <stop stop-color="#00AEEF" offset="100%"></stop>
        </linearGradient>
    </defs>
    <g id="Listing" stroke="none" stroke-width="1" fill="none" fill-rule="evenodd">
        <g id="WB1.4.2-Copy-2" transform="translate(-75.000000, -31.000000)" fill-rule="nonzero">
            <g id="RECTANGLE-No-statement" transform="translate(75.000000, 31.000000)">
                <path d="M72.8707305,23.3450464 L72.8074029,24.3721073 C72.8074029,24.3721073 69.5746852,23.8741868 67.419513,23.8741868 C65.3911587,23.8741868 63.1726589,24.4655273 63.1726589,26.9865095 C63.1726589,28.9160713 64.0283544,29.5074118 67.6730675,30.0676922 C71.8248895,30.7212328 73.4412483,31.3125734 73.4412483,34.2381359 C73.4412483,37.879599 71.1593396,39 67.419513,39 C65.6130087,39 62.1901455,38.5019996 62.1901455,38.5019996 L62.3169634,37.4749388 C62.3169634,37.4749388 65.7398265,38.0040791 67.3561854,38.0040791 C70.3353486,38.0040791 72.2685894,37.3193186 72.2685894,34.3315559 C72.2685894,32.090674 71.1276351,31.6549536 67.3561854,31.0947531 C63.6480633,30.5344727 62,29.9431322 62,27.0487097 C62,23.7496268 64.8524266,22.878186 67.419513,22.878186 C69.8599441,22.878186 72.8707305,23.3450464 72.8707305,23.3450464 Z M78.6072069,38.7198998 L77.4979569,38.7198998 L77.4979569,16 L78.6072069,16 L78.6072069,24.092007 C78.6072069,24.092007 81.3962243,22.878186 84.1218334,22.878186 C88.4320961,22.878186 89.3194967,24.5900074 89.3194967,30.6278927 L89.3194967,38.7198998 L88.2102466,38.7198998 L88.2102466,30.6900928 C88.2102466,25.3991682 87.6397286,23.8741868 84.1218334,23.8741868 C81.3011115,23.8741868 78.6072069,25.119068 78.6072069,25.119068 L78.6072069,38.7198998 Z M99.4929721,38.0040791 C101.711472,38.0040791 105.261072,37.7239788 105.261072,37.7239788 L105.324481,38.7198998 C105.324481,38.7198998 101.774881,39 99.4612676,39 C94.7390095,38.96886 93.5029413,36.0121574 93.5029413,30.939133 C93.5029413,24.7767676 96.2919595,22.878186 99.9049683,22.878186 C103.803236,22.878186 105.926622,24.9634478 105.926622,30.3477924 L105.926622,31.3748534 L94.6756005,31.3748534 C94.6756005,35.6698571 95.8165551,38.0040791 99.4929721,38.0040791 Z M94.6756005,30.3789324 L104.753963,30.3789324 C104.753963,25.6170683 103.201013,23.8741868 99.9049683,23.8741868 C96.7356593,23.8741868 94.6756005,25.6482083 94.6756005,30.3789324 L94.6756005,30.3789324 Z M115.402844,38.0040791 C117.621425,38.0040791 121.171024,37.7239788 121.171024,37.7239788 L121.234433,38.7198998 C121.234433,38.7198998 117.684752,39 115.371221,39 C110.64888,38.96886 109.412894,36.0121574 109.412894,30.939133 C109.412894,24.7767676 112.201912,22.878186 115.81492,22.878186 C119.713107,22.878186 121.836575,24.9634478 121.836575,30.3477924 L121.836575,31.3748534 L110.585553,31.3748534 C110.585553,35.6698571 111.726426,38.0040791 115.402844,38.0040791 Z M110.585553,30.3789324 L120.663915,30.3789324 C120.663915,25.6170683 119.110965,23.8741868 115.81492,23.8741868 C112.645612,23.8741868 110.585553,25.6482083 110.585553,30.3789324 L110.585553,30.3789324 Z M125.988397,38.7198998 L125.988397,23.1582863 L127.097646,23.1582863 L127.097646,25.5859283 C127.097646,25.5859283 129.886583,23.5006666 133.372855,22.8471259 L133.372855,23.967527 C130.266955,24.5900074 127.097646,26.6129893 127.097646,26.6129893 L127.097646,38.7198998 L125.988397,38.7198998 Z M136.795718,38.7198998 L136.795718,16.9337208 L139.204363,16.9337208 L147.000899,37.0081582 L154.797352,16.9337208 L157.206079,16.9337208 L157.206079,38.7198998 L156.065125,38.7198998 L156.065125,17.9919216 L155.621425,17.9919216 L147.824889,38.0662792 L146.176826,38.0662792 L138.380372,17.9919216 L137.936673,17.9919216 L137.936673,38.7198998 L136.795718,38.7198998 Z M163.037588,38.7198998 L163.037588,16.9337208 L176,16.9337208 L176,17.9919216 L164.178542,17.9919216 L164.178542,27.0487097 L174.098464,27.0487097 L174.098464,28.1069105 L164.178542,28.1069105 L164.178542,37.6616988 L176,37.6616988 L176,38.7198998 L163.037588,38.7198998 L163.037588,38.7198998 Z" id="sheerme" fill="#100E0D"></path>
                <g id="enso">
                    <path d="M1.31591626,32.0022475 C1.83931567,34.8627914 4.72235368,40.6155026 3.55924388,37.287931 C1.58195722,31.6252216 1.02513882,29.725488 0.908827835,23.7708862 C0.792516854,26.7481871 0.792516854,28.9665681 1.31591626,32.0022475 Z" id="Path" fill="url(#linearGradient-1)"></path>
                    <path d="M0.814027138,23.5093706 L0.814027138,23.5093706 C0.814027138,23.5665772 0.814027138,23.5665772 0.814027138,23.6237837 C0.814027138,23.5665772 0.814027138,23.5093706 0.814027138,23.5093706 Z" id="Path" fill="url(#linearGradient-2)"></path>
                    <path d="M27.30455,53.2966106 C28.0143826,53.3538171 28.7833679,53.3538171 29.5523534,53.2966106 C29.197437,53.2966106 28.8425207,53.2966106 28.4876043,53.2966106 C28.6650625,53.2966106 28.7833679,53.2966106 29.0199788,53.2966106 C29.3748952,53.2966106 29.7298116,53.2966106 30.0847279,53.2966106 C30.3213388,53.2966106 30.6171024,53.2394041 30.8537132,53.2394041 C30.6171024,53.2394041 30.4396442,53.2394041 30.2030333,53.2394041 C29.3157425,53.2394041 28.4876043,53.2966106 27.718619,53.2966106 C27.1270918,53.2394041 26.5947173,53.1821975 26.00319,53.124991 C26.3581064,53.1821975 26.7130228,53.2394041 27.0679391,53.2966106 C27.0087864,53.2966106 26.8904809,53.2966106 26.8313282,53.2966106 C26.9496336,53.2966106 27.0679391,53.2966106 27.1862445,53.2966106 C27.2453972,53.2966106 27.2453972,53.2966106 27.30455,53.2966106 C27.2453972,53.2966106 27.2453972,53.2966106 27.30455,53.2966106 Z" id="Path" fill="url(#linearGradient-3)"></path>
                    <path d="M51.4835651,42.1979614 C53.8990621,38.3321966 55.1951824,33.6464209 54.9006097,28.1406345 C54.6060368,23.5720033 54.5471223,28.0234902 54.4882077,30.6592389 C54.4882077,30.5420945 54.4882077,30.366378 54.4882077,30.2492335 C54.5471223,28.6092121 54.4292931,26.9106184 54.1347204,25.2705969 C54.1936349,25.7977467 54.311464,26.3248965 54.3703786,26.8520462 C54.4882077,27.7306291 54.4882077,28.6092121 54.4882077,29.487795 C54.3703786,26.0906077 53.7223184,22.8105647 52.5440272,19.9405271 C52.7796854,20.4091047 52.9564291,20.8776823 53.1331728,21.3462599 C52.426198,19.296233 51.4835651,17.4219227 50.3641884,15.7819013 C47.477375,11.4475588 43.0587829,8.28466022 37.1084124,6.82035534 C41.055688,8.34323244 44.531647,10.2761148 47.3595458,12.8532915 C51.7781379,18.0662169 53.8990621,22.8691369 53.9579767,28.3749233 C53.8990621,27.7306291 53.8401475,27.086335 53.7223184,26.2663243 C52.5440272,18.0076447 54.3703786,29.9563726 52.8975146,35.6378755 C52.6618564,36.5164585 52.308369,37.3950414 51.8959671,38.2736243 C52.0727107,37.9807634 52.2494544,37.7464746 52.4851127,37.4536136 L52.4851127,37.4536136 L52.4851127,37.4536136 L53.1920874,36.1064531 C53.8401475,34.876437 54.1936349,33.4121321 54.4292931,31.8306828 C53.9579767,36.3993141 52.2494544,40.3236512 49.5982991,43.6036941 C50.6587613,42.0808171 51.6013942,40.3822234 52.1905398,38.5664854 L52.1905398,38.6250575 C52.4851127,38.0393355 51.8959671,38.8007741 51.0122486,40.1479346 C50.5409321,40.9679454 50.0696157,41.7293838 49.5393846,42.4322503 C49.4804701,42.4908224 49.4215555,42.6079668 49.3037264,42.666539 C49.6572138,42.1979614 49.9517865,41.7293838 50.1874448,41.2608063 C49.7750428,41.8465283 49.3626409,42.4908224 48.8913245,43.0765444 C44.8262198,47.4108869 40.4076277,50.6909298 35.282061,52.0966625 C36.9316687,51.7452293 38.5223618,51.2180795 39.9952258,50.5737854 C33.9859407,53.5609673 27.6820827,53.736684 22.0262849,51.8623737 C23.3813198,52.2138069 24.7952693,52.4480956 26.2092187,52.6238123 C25.4433294,52.5066678 24.6774401,52.3895235 23.8526363,52.1552347 C21.3782248,51.5695127 19.1394715,50.6909298 17.1363764,49.6366303 C16.7239745,49.4023415 16.252658,49.1094805 15.8402561,48.8166195 C12.8356135,46.7080205 10.0666291,43.8965551 7.71004672,40.6165121 C7.06198657,39.6793571 6.53175552,38.6250575 6.00152448,37.6293302 C3.35036925,31.0692443 3.40928382,23.1034257 5.94260992,15.1961793 C6.17826816,14.6690296 6.47284096,14.0833076 6.76741376,13.5561579 C7.06198657,13.0290081 7.94570497,11.6818476 8.88833797,10.3932593 C9.41856897,9.9832539 9.94880004,9.57324851 10.5968602,9.16324313 C10.2433728,9.16324313 9.94880004,9.16324313 9.71314182,9.22181535 L9.71314182,9.22181535 C13.0712717,8.22608808 13.5425882,8.22608808 11.834066,7.87465486 C14.4263066,7.64036608 15.8991706,5.88320022 14.5441357,7.28893291 C12.5410406,9.28038757 15.6635124,6.87892754 16.782889,6.00034461 C17.3720346,5.76605582 18.0790094,5.47319485 18.3146676,5.23890607 C18.4324967,5.12176167 18.5503258,5.06318948 18.6092404,4.94604509 C19.4340442,5.29747826 19.9053608,4.12603435 19.9642753,3.07173483 C21.2603956,0.377413839 19.9053608,-0.149735921 18.0200948,0.143125057 L18.0200948,0.143125057 L18.0200948,0.143125057 C17.3131201,0.201697252 16.6061453,0.377413839 15.9580852,0.553130425 C15.4278542,0.728847012 14.8976231,0.8459914 14.4852212,1.13885238 C12.7177843,2.25172409 5.70695167,7.4646495 7.76896129,7.05464413 C7.12090113,7.64036608 6.4139264,8.28466022 6.23718272,8.51894902 C6.29609728,8.4603768 6.35501184,8.40180466 6.4139264,8.40180466 C6.00152448,8.87038218 5.41237888,9.45610415 5.11780607,9.92468168 C1.70076156,15.3718959 4.94106239,12.5018583 6.7084992,10.1003983 C6.82632832,10.0418261 7.06198657,10.0418261 7.2976448,9.92468168 C7.35655936,9.92468168 7.35655936,9.92468168 7.41547393,9.86610954 C7.35655936,9.92468168 7.2976448,9.92468168 7.23873024,9.9832539 C5.29454975,12.1504251 2.76122365,16.6604842 1.3472742,19.9405271 C1.641847,18.5347945 1.93641981,17.1876339 2.17207805,15.6647568 C-1.24496645,21.697693 0.0511538752,28.1406345 1.70076156,34.583576 C0.581384919,29.8392282 0.345726677,28.4920677 0.817043161,23.6305754 C0.875957722,22.8105647 0.993786845,21.990554 1.11161596,21.2876876 C4.41083134,18.3005057 2.7023091,15.5476125 7.94570497,11.0961256 C4.41083134,16.3676233 3.05579646,21.5805486 3.46819838,27.2620516 C3.29145469,23.3377145 4.05734398,19.296233 5.88369536,15.2547515 C3.52711294,22.1662706 3.17362558,29.6049394 5.35346431,36.1064531 C5.05889151,35.4035868 4.82323327,34.7592926 4.58757503,34.0564263 C4.88214783,35.169298 5.23563519,36.2821697 5.64803711,37.4536136 C5.47129344,37.1607526 5.35346431,36.9264638 5.17672063,36.6336029 L6.53175552,39.5036404 C7.12090113,40.7336566 7.76896129,41.9051004 8.53485059,42.9594 C8.12244865,42.4322503 7.71004672,41.9051004 7.23873024,41.3779507 C8.65267966,43.3694054 9.71314182,44.6579937 10.891433,45.8294375 C11.7162368,46.7080205 12.5410406,47.469459 13.4247591,48.1723254 C13.837161,48.5237586 14.2495629,48.8166195 14.7208794,49.2266249 C19.7875316,52.3309513 24.7952693,54.1466893 29.920836,54.0881172 C25.9146459,54.3224059 21.9673704,53.5609673 17.9022657,51.4523683 C4.52866046,44.4237049 0.640299479,29.780656 4.70540415,15.8990456 C2.93796733,21.8148374 2.40773629,24.1577252 3.23254014,30.366378 C4.29300223,38.6836297 2.64339454,28.6092121 2.40773629,26.3834686 C2.76122365,32.1235438 4.11625854,36.9264638 6.17826816,40.7922287 C5.8247808,40.265079 5.47129344,39.7379292 5.17672063,39.2693517 C3.29145469,35.4035868 2.28990717,31.0106721 2.28990717,26.207752 C2.34882173,21.697693 4.82323327,15.7233291 2.23099261,21.6391208 L2.23099261,21.6391208 L2.23099261,21.6391208 L2.23099261,21.6391208 L2.23099261,21.6391208 L2.23099261,21.6391208 C0.817043161,23.2791423 0.934872283,27.2034794 1.22944508,29.194934 C2.17207805,36.3993141 5.35346431,41.3779507 7.76896129,44.2479883 C9.6542272,46.7665927 11.8929805,48.8166195 14.367392,50.3980688 C12.3053824,49.1680527 10.479031,47.76232 8.59376513,45.7122932 C7.47438849,44.5408492 3.82168575,39.0350629 4.05734398,39.6207849 C6.59067008,46.8837371 14.1317338,52.3309513 21.4960538,54.0881172 C33.3967951,56.9581547 44.7083906,52.858101 50.7765904,43.4279775 C51.0122486,43.0179721 51.2479069,42.6079668 51.4835651,42.1979614 Z" id="Shape" fill="url(#linearGradient-4)"></path>
                </g>
            </g>
        </g>
    </g>
</svg>